<svg xmlns="http://www.w3.org/2000/svg" viewBox="0 0 240 240" width="240" height="240">
  <rect width="240" height="240" fill="#ffffff" />
  <!-- Three position markers (top-left, top-right, bottom-left) -->
  <g fill="#0a0a0f">
    <rect x="20" y="20" width="50" height="50" />
    <rect x="170" y="20" width="50" height="50" />
    <rect x="20" y="170" width="50" height="50" />
  </g>
  <g fill="#ffffff">
    <rect x="28" y="28" width="34" height="34" />
    <rect x="178" y="28" width="34" height="34" />
    <rect x="28" y="178" width="34" height="34" />
  </g>
  <g fill="#0a0a0f">
    <rect x="36" y="36" width="18" height="18" />
    <rect x="186" y="36" width="18" height="18" />
    <rect x="36" y="186" width="18" height="18" />
  </g>
  <!-- Decorative data modules to suggest a QR code (not a real, scannable code) -->
  <g fill="#0a0a0f">
    <rect x="80" y="20" width="10" height="10" /><rect x="100" y="20" width="10" height="10" /><rect x="130" y="20" width="10" height="10" /><rect x="150" y="20" width="10" height="10" />
    <rect x="80" y="40" width="10" height="10" /><rect x="120" y="40" width="10" height="10" /><rect x="140" y="40" width="10" height="10" /><rect x="160" y="40" width="10" height="10" />
    <rect x="90" y="60" width="10" height="10" /><rect x="110" y="60" width="10" height="10" /><rect x="130" y="60" width="10" height="10" /><rect x="150" y="60" width="10" height="10" />
    <rect x="20" y="80" width="10" height="10" /><rect x="40" y="80" width="10" height="10" /><rect x="80" y="80" width="10" height="10" /><rect x="100" y="80" width="10" height="10" /><rect x="140" y="80" width="10" height="10" /><rect x="170" y="80" width="10" height="10" /><rect x="190" y="80" width="10" height="10" /><rect x="210" y="80" width="10" height="10" />
    <rect x="30" y="100" width="10" height="10" /><rect x="60" y="100" width="10" height="10" /><rect x="90" y="100" width="10" height="10" /><rect x="120" y="100" width="10" height="10" /><rect x="150" y="100" width="10" height="10" /><rect x="180" y="100" width="10" height="10" /><rect x="200" y="100" width="10" height="10" />
    <rect x="20" y="120" width="10" height="10" /><rect x="50" y="120" width="10" height="10" /><rect x="80" y="120" width="10" height="10" /><rect x="110" y="120" width="10" height="10" /><rect x="160" y="120" width="10" height="10" /><rect x="190" y="120" width="10" height="10" /><rect x="220" y="120" width="10" height="10" />
    <rect x="40" y="140" width="10" height="10" /><rect x="70" y="140" width="10" height="10" /><rect x="100" y="140" width="10" height="10" /><rect x="130" y="140" width="10" height="10" /><rect x="170" y="140" width="10" height="10" /><rect x="200" y="140" width="10" height="10" />
    <rect x="80" y="170" width="10" height="10" /><rect x="100" y="170" width="10" height="10" /><rect x="120" y="170" width="10" height="10" /><rect x="150" y="170" width="10" height="10" /><rect x="180" y="170" width="10" height="10" /><rect x="210" y="170" width="10" height="10" />
    <rect x="90" y="190" width="10" height="10" /><rect x="110" y="190" width="10" height="10" /><rect x="130" y="190" width="10" height="10" /><rect x="160" y="190" width="10" height="10" /><rect x="190" y="190" width="10" height="10" />
    <rect x="80" y="210" width="10" height="10" /><rect x="100" y="210" width="10" height="10" /><rect x="140" y="210" width="10" height="10" /><rect x="170" y="210" width="10" height="10" /><rect x="200" y="210" width="10" height="10" />
  </g>
  <!-- Center "OpenArm" mark -->
  <rect x="100" y="100" width="40" height="40" rx="8" fill="#0a0a0f" />
  <text x="120" y="128" font-family="-apple-system, BlinkMacSystemFont, 'Segoe UI', sans-serif" font-size="20" font-weight="800" fill="#ffffff" text-anchor="middle">O</text>
</svg>
